<svg width="33" height="33" viewBox="0 0 33 33" fill="none" xmlns="http://www.w3.org/2000/svg">
<path d="M32.7727 16.4578C32.7435 7.50075 25.4716 0.25 16.513 0.25C7.55113 0.25 0.280875 7.50075 0.251625 16.4578L0.25 16.4155V16.5975L0.251625 16.5601C0.27925 25.5188 7.5495 32.7728 16.513 32.7728C25.4732 32.7728 32.7435 25.522 32.7727 16.565L32.7744 16.6073V16.4155L32.7727 16.4578V16.4578ZM12.0816 23.9051C8.0045 23.9051 4.69112 20.5918 4.69112 16.513C4.69112 12.4343 8.0045 9.12088 12.0816 9.12088C14.0804 9.12088 15.7509 9.85375 17.0314 11.0514L14.927 13.0908C14.3989 12.5886 13.4661 11.9971 12.0816 11.9971C9.636 11.9971 7.6405 14.03 7.6405 16.5228C7.6405 19.0139 9.63762 21.0468 12.0816 21.0468C14.9124 21.0468 15.9556 19.087 16.1474 17.9268H12.0784V15.1675H18.9927C19.1 15.6323 19.1796 16.0678 19.1796 16.682C19.1796 20.9021 16.3489 23.9051 12.0816 23.9051V23.9051ZM29.0759 17.2508H26.12V20.2066H23.9035V17.2508H20.946V15.0343H23.9035V12.0768H26.12V15.0343H29.0759V17.2508Z" fill="white"/>
</svg>
