<svg width="33" height="33" viewBox="0 0 33 33" fill="none" xmlns="http://www.w3.org/2000/svg">
<path d="M16.5 0.3125C7.56074 0.3125 0.3125 7.56074 0.3125 16.5C0.3125 25.4393 7.56074 32.6875 16.5 32.6875C25.4393 32.6875 32.6875 25.4393 32.6875 16.5C32.6875 7.56074 25.4393 0.3125 16.5 0.3125ZM24.2794 12.5146C24.2902 12.6844 24.2902 12.8614 24.2902 13.0349C24.2902 18.3392 20.2506 24.4492 12.8687 24.4492C10.5923 24.4492 8.48213 23.788 6.70439 22.6498C7.02959 22.6859 7.34033 22.7004 7.67275 22.7004C9.55166 22.7004 11.2788 22.0645 12.6555 20.9877C10.8922 20.9516 9.41074 19.7953 8.90488 18.2055C9.52275 18.2958 10.0792 18.2958 10.7151 18.1332C9.80721 17.9487 8.99115 17.4557 8.40559 16.7377C7.82002 16.0197 7.50107 15.1212 7.50293 14.1947V14.1441C8.03408 14.444 8.65918 14.6283 9.31318 14.6536C8.7634 14.2872 8.31251 13.7908 8.00052 13.2084C7.68852 12.626 7.52506 11.9756 7.52461 11.3149C7.52461 10.567 7.71973 9.88408 8.07022 9.2915C9.07797 10.5321 10.3355 11.5467 11.7611 12.2694C13.1866 12.9922 14.7483 13.4069 16.3446 13.4865C15.7773 10.7585 17.8152 8.55078 20.265 8.55078C21.4213 8.55078 22.4619 9.03496 23.1954 9.81543C24.1023 9.64561 24.9695 9.30596 25.7428 8.85068C25.4429 9.7793 24.8142 10.5634 23.9795 11.0584C24.7889 10.9717 25.5693 10.7477 26.292 10.4333C25.7464 11.2354 25.0635 11.9473 24.2794 12.5146V12.5146Z" fill="white"/>
</svg>
